<svg width="17" height="17" viewBox="0 0 17 17" fill="none" xmlns="http://www.w3.org/2000/svg">
<path d="M7.87156 16.3668C7.87156 16.6406 7.6396 16.8584 7.36808 16.8238C4.92893 16.5131 2.81498 15.1623 1.48463 13.2297C1.35975 13.0483 1.38853 12.8048 1.54426 12.649L7.06407 7.12901C7.36205 6.83102 7.87156 7.04209 7.87156 7.46352V16.3668ZM15.4234 12.5375C15.5771 12.6912 15.6074 12.9308 15.4871 13.1119C14.1932 15.061 12.1119 16.4415 9.69696 16.8C9.42261 16.8408 9.18477 16.6217 9.18477 16.3444V7.44063C9.18477 7.0192 9.69428 6.80813 9.99226 7.10615L15.4234 12.5375ZM1.14542 11.1907C0.907307 11.4288 0.504847 11.348 0.402003 11.0273C0.141073 10.2137 0 9.34646 0 8.44625C9.1003e-06 7.47375 0.164399 6.53963 0.466854 5.67016C0.530815 5.4863 0.706819 5.36746 0.901487 5.36746H5.82658C6.248 5.36746 6.45905 5.87699 6.16105 6.17498L1.14542 11.1907ZM15.9905 5.36746C16.1852 5.36746 16.3612 5.4863 16.4251 5.67016C16.7276 6.53963 16.892 7.47372 16.892 8.44625C16.892 9.2915 16.7677 10.1077 16.5365 10.8777C16.4387 11.2036 16.0319 11.289 15.7913 11.0484L10.9181 6.17498C10.6201 5.87699 10.8312 5.36746 11.2526 5.36746H15.9905ZM8.44612 0C11.2 1.80205e-05 13.646 1.31807 15.1878 3.35781C15.4105 3.65235 15.1883 4.05419 14.8191 4.05419H2.07311C1.70389 4.05419 1.48174 3.65235 1.70439 3.35781C3.24622 1.31807 5.6922 0 8.44612 0Z" fill="#00BBA7"/>
</svg>
