<svg width="120" height="17" viewBox="0 0 120 17" fill="none" xmlns="http://www.w3.org/2000/svg">
<g clip-path="url(#clip0_1605_1904)">
<path d="M7.06445 7.1293C7.3624 6.83137 7.87099 7.04197 7.87109 7.46329V16.3666C7.87082 16.6401 7.63951 16.8572 7.36816 16.8227C4.92901 16.512 2.81473 15.1614 1.48438 13.2289C1.35981 13.0477 1.38855 12.8045 1.54395 12.6488L7.06445 7.1293ZM9.18457 7.44083C9.18457 7.01949 9.69419 6.80808 9.99219 7.10587L15.4238 12.5375C15.5771 12.6912 15.6074 12.9308 15.4873 13.1117C14.1934 15.0605 12.1121 16.4406 9.69727 16.7992C9.42307 16.8399 9.18484 16.6213 9.18457 16.3441V7.44083ZM41.7695 4.7084C43.9846 4.7084 45.6171 5.22902 46.668 6.26895C47.7348 7.30889 48.2685 8.79536 48.2686 10.7289C48.2686 12.6787 47.7431 14.1733 46.6924 15.2133C45.6415 16.237 44.0006 16.7494 41.7695 16.7494C39.5547 16.7494 37.9222 16.237 36.8711 15.2133C35.8203 14.1733 35.2949 12.6787 35.2949 10.7289C35.2949 8.79536 35.8202 7.30889 36.8711 6.26895C37.9382 5.22901 39.5708 4.70841 41.7695 4.7084ZM56.2393 4.7084C58.4541 4.7084 60.0878 5.22899 61.1387 6.26895C62.2055 7.30887 62.7392 8.79558 62.7393 10.7289C62.7393 12.6785 62.2136 14.1733 61.1631 15.2133C60.1122 16.237 58.4703 16.7494 56.2393 16.7494C54.0244 16.7494 52.3916 16.2369 51.3408 15.2133C50.2901 14.1733 49.7646 12.6786 49.7646 10.7289C49.7647 8.79547 50.2901 7.30888 51.3408 6.26895C52.4079 5.22906 54.0407 4.70847 56.2393 4.7084ZM69.2061 4.95255H71.9951L71.8252 7.92618H69.2061V12.3617C69.2061 12.9141 69.3436 13.3042 69.6182 13.5316C69.8931 13.7429 70.3058 13.849 70.8555 13.849C71.3242 13.849 71.8011 13.7674 72.2861 13.6049V16.2621C71.5263 16.5871 70.5801 16.7494 69.4482 16.7494C68.0258 16.7494 66.9749 16.3838 66.2959 15.6527C65.6331 14.9216 65.3018 13.9139 65.3018 12.6303V7.92618H63.75V4.95255H65.3018V2.53946L69.2061 1.49161V4.95255ZM28.7637 0.80899C30.6065 0.809076 31.964 1.29702 32.8369 2.27188C33.7099 3.24682 34.1465 4.55462 34.1465 6.19571C34.1465 7.25176 33.8801 8.17787 33.3467 8.97403C32.8132 9.77024 32.0856 10.3633 31.1641 10.7533C31.3902 10.932 31.5679 11.1353 31.6973 11.3627C31.8429 11.574 31.9966 11.8751 32.1582 12.265L34.001 16.5053H29.9268L28.1816 12.5082C28.036 12.167 27.8493 11.923 27.623 11.7768C27.3966 11.6144 27.0734 11.5336 26.6533 11.5336H24.8584V16.5053H20.9541V0.80899H28.7637ZM77.6943 13.4828H85.0664V16.5053H73.79V0.80899H77.6943V13.4828ZM90.7217 16.5053H86.8174V7.85294H85.1201L85.459 4.95255H90.7217V16.5053ZM101.019 4.7084C102.506 4.7084 103.59 5.06671 104.269 5.78165C104.947 6.49659 105.286 7.60149 105.286 9.0961V16.5053H101.382V9.41251C101.382 8.76271 101.245 8.3 100.97 8.02383C100.695 7.74763 100.202 7.6088 99.4902 7.6088C99.07 7.60886 98.6413 7.70685 98.2051 7.90176C97.7686 8.09673 97.4052 8.34081 97.1143 8.63321V16.5053H93.21V4.95255H96.8477L96.9688 5.95157C97.4376 5.62667 98.028 5.34273 98.7393 5.09903C99.4505 4.83907 100.21 4.7084 101.019 4.7084ZM111.536 8.65762L115.295 4.95255H119.733L115.126 9.7543L120 16.5053H115.853L112.676 11.8256L111.536 12.9467V16.5053H107.632V0.0775452H111.536V8.65762ZM41.7695 7.77969C40.8803 7.7797 40.2416 8.00732 39.8535 8.46231C39.4657 8.91729 39.2715 9.67286 39.2715 10.7289C39.2715 11.7849 39.4658 12.5405 39.8535 12.9955C40.2416 13.4505 40.8803 13.6781 41.7695 13.6781C42.675 13.6781 43.3219 13.4505 43.71 12.9955C44.0979 12.5405 44.292 11.7848 44.292 10.7289C44.292 9.67293 44.0979 8.9173 43.71 8.46231C43.3219 8.00732 42.675 7.77969 41.7695 7.77969ZM56.2393 7.77969C55.3504 7.77976 54.7122 8.00754 54.3242 8.46231C53.9364 8.91729 53.7422 9.67281 53.7422 10.7289C53.7422 11.7851 53.9364 12.5405 54.3242 12.9955C54.7122 13.4504 55.3503 13.6781 56.2393 13.6781C57.1445 13.6781 57.7916 13.4505 58.1797 12.9955C58.5677 12.5405 58.7617 11.785 58.7617 10.7289C58.7617 9.67281 58.5677 8.91729 58.1797 8.46231C57.7916 8.00733 57.1445 7.77969 56.2393 7.77969ZM5.82617 5.36758C6.24759 5.36758 6.45913 5.87723 6.16113 6.1752L1.14551 11.1898C0.907392 11.428 0.505187 11.3474 0.402344 11.0268C0.141436 10.2133 0 9.34583 0 8.44571C5.1081e-05 7.47346 0.164412 6.53958 0.466797 5.67032C0.530745 5.48651 0.706747 5.36763 0.901367 5.36758H5.82617ZM15.9902 5.36758C16.1849 5.36758 16.3609 5.48648 16.4248 5.67032C16.7272 6.53961 16.8915 7.47339 16.8916 8.44571C16.8916 9.29091 16.7673 10.1074 16.5361 10.8773C16.4383 11.2031 16.0316 11.2888 15.791 11.0482L10.918 6.1752C10.62 5.87723 10.8315 5.36758 11.2529 5.36758H15.9902ZM24.8584 8.51114H27.7441C28.5039 8.51114 29.0943 8.32416 29.5146 7.95059C29.9512 7.56064 30.1699 6.97558 30.1699 6.19571C30.1699 4.61953 29.4176 3.83145 27.9141 3.83145H24.8584V8.51114ZM8.44629 0.000396729C11.2 0.000469419 13.6457 1.31841 15.1875 3.35782C15.4101 3.65229 15.1884 4.05396 14.8193 4.05411H2.07324C1.70404 4.05411 1.4815 3.65234 1.7041 3.35782C3.24593 1.31822 5.69237 0.000396729 8.44629 0.000396729ZM90.7461 3.12442H86.502V0.175201H90.7461V3.12442Z" fill="#00BBA7"/>
</g>
<defs>
<clipPath id="clip0_1605_1904">
<rect width="120" height="16.8267" fill="white"/>
</clipPath>
</defs>
</svg>
