<svg width="118" height="28" viewBox="0 0 118 28" fill="none" xmlns="http://www.w3.org/2000/svg">
<path d="M1.87136 24V5.968H10.8874C13.0154 5.968 14.5834 6.528 15.5914 7.648C16.5994 8.768 17.1034 10.2707 17.1034 12.156C17.1034 13.3693 16.7954 14.4333 16.1794 15.348C15.5634 16.2627 14.7234 16.944 13.6594 17.392C13.9207 17.5973 14.126 17.8307 14.2754 18.092C14.4434 18.3347 14.6207 18.68 14.8074 19.128L16.9354 24H12.2314L10.2154 19.408C10.0474 19.016 9.83269 18.736 9.57136 18.568C9.31003 18.3813 8.93669 18.288 8.45136 18.288H6.37936V24H1.87136ZM6.37936 14.816H9.71136C10.5887 14.816 11.27 14.6013 11.7554 14.172C12.2594 13.724 12.5114 13.052 12.5114 12.156C12.5114 10.3453 11.6434 9.44 9.90736 9.44H6.37936V14.816ZM25.9045 24.28C23.3472 24.28 21.4619 23.692 20.2485 22.516C19.0352 21.3213 18.4285 19.604 18.4285 17.364C18.4285 15.1427 19.0352 13.4347 20.2485 12.24C21.4805 11.0453 23.3659 10.448 25.9045 10.448C28.4619 10.448 30.3472 11.0453 31.5605 12.24C32.7925 13.4347 33.4085 15.1427 33.4085 17.364C33.4085 19.604 32.8019 21.3213 31.5885 22.516C30.3752 23.692 28.4805 24.28 25.9045 24.28ZM25.9045 20.752C26.9499 20.752 27.6965 20.4907 28.1445 19.968C28.5925 19.4453 28.8165 18.5773 28.8165 17.364C28.8165 16.1507 28.5925 15.2827 28.1445 14.76C27.6965 14.2373 26.9499 13.976 25.9045 13.976C24.8779 13.976 24.1405 14.2373 23.6925 14.76C23.2445 15.2827 23.0205 16.1507 23.0205 17.364C23.0205 18.5773 23.2445 19.4453 23.6925 19.968C24.1405 20.4907 24.8779 20.752 25.9045 20.752ZM42.6116 24.28C40.0542 24.28 38.1689 23.692 36.9556 22.516C35.7422 21.3213 35.1356 19.604 35.1356 17.364C35.1356 15.1427 35.7422 13.4347 36.9556 12.24C38.1876 11.0453 40.0729 10.448 42.6116 10.448C45.1689 10.448 47.0542 11.0453 48.2676 12.24C49.4996 13.4347 50.1156 15.1427 50.1156 17.364C50.1156 19.604 49.5089 21.3213 48.2956 22.516C47.0822 23.692 45.1876 24.28 42.6116 24.28ZM42.6116 20.752C43.6569 20.752 44.4036 20.4907 44.8516 19.968C45.2996 19.4453 45.5236 18.5773 45.5236 17.364C45.5236 16.1507 45.2996 15.2827 44.8516 14.76C44.4036 14.2373 43.6569 13.976 42.6116 13.976C41.5849 13.976 40.8476 14.2373 40.3996 14.76C39.9516 15.2827 39.7276 16.1507 39.7276 17.364C39.7276 18.5773 39.9516 19.4453 40.3996 19.968C40.8476 20.4907 41.5849 20.752 42.6116 20.752ZM57.8626 24.28C56.2199 24.28 55.0066 23.86 54.2226 23.02C53.4573 22.18 53.0746 21.0227 53.0746 19.548V14.144H51.2826V10.728H53.0746V7.956L57.5826 6.752V10.728H60.8026L60.6066 14.144H57.5826V19.24C57.5826 19.8747 57.7413 20.3227 58.0586 20.584C58.3759 20.8267 58.8519 20.948 59.4866 20.948C60.0279 20.948 60.5786 20.8547 61.1386 20.668V23.72C60.2613 24.0933 59.1693 24.28 57.8626 24.28ZM62.8753 24V5.968H67.3833V20.528H75.8953V24H62.8753ZM77.5525 8.628V5.24H82.4525V8.628H77.5525ZM77.9165 24V14.06H75.9565L76.3485 10.728H82.4245V24H77.9165ZM85.2971 24V10.728H89.4971L89.6371 11.876C90.1785 11.5027 90.8598 11.176 91.6811 10.896C92.5025 10.5973 93.3798 10.448 94.3131 10.448C96.0305 10.448 97.2811 10.8587 98.0651 11.68C98.8491 12.5013 99.2411 13.7707 99.2411 15.488V24H94.7331V15.852C94.7331 15.1053 94.5745 14.5733 94.2571 14.256C93.9398 13.9387 93.3705 13.78 92.5491 13.78C92.0638 13.78 91.5691 13.892 91.0651 14.116C90.5611 14.34 90.1411 14.62 89.8051 14.956V24H85.2971ZM101.949 24V5.128H106.457V14.984L110.797 10.728H115.921L110.601 16.244L116.229 24H111.441L107.773 18.624L106.457 19.912V24H101.949Z" fill="#388E3C"/>
</svg>
