<svg preserveAspectRatio="none" width="100%" height="100%" overflow="visible" style="display: block;" viewBox="0 0 120.001 16.8259" fill="none" xmlns="http://www.w3.org/2000/svg">
<path id="Union" d="M7.06445 7.12891C7.3624 6.83098 7.87099 7.04158 7.87109 7.46289V16.3662C7.87082 16.6397 7.63951 16.8568 7.36816 16.8223C4.92901 16.5116 2.81473 15.161 1.48438 13.2285C1.35981 13.0473 1.38855 12.8041 1.54395 12.6484L7.06445 7.12891ZM9.18457 7.44043C9.18457 7.01909 9.69419 6.80768 9.99219 7.10547L15.4238 12.5371C15.5771 12.6908 15.6074 12.9304 15.4873 13.1113C14.1934 15.0601 12.1121 16.4402 9.69727 16.7988C9.42307 16.8395 9.18484 16.6209 9.18457 16.3438V7.44043ZM41.7705 4.70801C43.9854 4.70804 45.6181 5.22863 46.6689 6.26855C47.7358 7.30849 48.2695 8.79501 48.2695 10.7285C48.2695 12.6782 47.744 14.1729 46.6934 15.2129C45.6425 16.2365 44.0015 16.749 41.7705 16.749C39.5557 16.749 37.9222 16.2366 36.8711 15.2129C35.8205 14.1729 35.2949 12.6781 35.2949 10.7285C35.2949 8.79518 35.8205 7.30848 36.8711 6.26855C37.9382 5.2286 39.5717 4.70801 41.7705 4.70801ZM56.2402 4.70801C58.4551 4.70801 60.0878 5.2286 61.1387 6.26855C62.2058 7.30849 62.7392 8.79496 62.7393 10.7285C62.7393 12.6783 62.2139 14.1729 61.1631 15.2129C60.1122 16.2366 58.4713 16.749 56.2402 16.749C54.0253 16.749 52.3926 16.2366 51.3418 15.2129C50.291 14.1729 49.7656 12.6783 49.7656 10.7285C49.7656 8.79499 50.291 7.30849 51.3418 6.26855C52.4089 5.22862 54.0415 4.70803 56.2402 4.70801ZM69.207 4.95215H71.9961L71.8262 7.92578H69.207V12.3613C69.207 12.9138 69.3445 13.3038 69.6191 13.5312C69.894 13.7425 70.306 13.8486 70.8555 13.8486C71.3243 13.8486 71.802 13.767 72.2871 13.6045V16.2617C71.5272 16.5867 70.5811 16.749 69.4492 16.749C68.0267 16.749 66.9759 16.3834 66.2969 15.6523C65.6341 14.9212 65.3028 13.9135 65.3027 12.6299V7.92578H63.75V4.95215H65.3027V2.53906L69.207 1.49121V4.95215ZM28.7637 0.808594C30.6067 0.808594 31.9649 1.29654 32.8379 2.27148C33.7108 3.24641 34.1475 4.55429 34.1475 6.19531C34.1474 7.25131 33.881 8.1775 33.3477 8.97363C32.8143 9.76978 32.0864 10.363 31.165 10.7529C31.3912 10.9316 31.5689 11.1349 31.6982 11.3623C31.8438 11.5736 31.9975 11.8747 32.1592 12.2646L34.002 16.5049H29.9277L28.1816 12.5078C28.036 12.1667 27.8502 11.9226 27.624 11.7764C27.3977 11.614 27.0744 11.5332 26.6543 11.5332H24.8594V16.5049H20.9551V0.808594H28.7637ZM77.6953 13.4824H85.0674V16.5049H73.791V0.808594H77.6953V13.4824ZM90.7227 16.5049H86.8184V7.85254H85.1201L85.46 4.95215H90.7227V16.5049ZM101.02 4.70801C102.507 4.70805 103.59 5.06636 104.269 5.78125C104.947 6.49619 105.287 7.60084 105.287 9.0957V16.5049H101.383V9.41211C101.383 8.7624 101.246 8.29961 100.971 8.02344C100.696 7.74723 100.203 7.6084 99.4912 7.6084C99.0709 7.60843 98.6424 7.70641 98.2061 7.90137C97.7695 8.09634 97.4062 8.34037 97.1152 8.63281V16.5049H93.21V4.95215H96.8477L96.9697 5.95117C97.4384 5.62639 98.0283 5.34227 98.7393 5.09863C99.4506 4.83863 100.211 4.70801 101.02 4.70801ZM111.537 8.65723L115.296 4.95215H119.734L115.126 9.75391L120.001 16.5049H115.854L112.677 11.8252L111.537 12.9463V16.5049H107.633V0.0771484H111.537V8.65723ZM41.7705 7.7793C40.8813 7.7793 40.2426 8.00696 39.8545 8.46191C39.4667 8.91689 39.2725 9.67242 39.2725 10.7285C39.2725 11.7846 39.4667 12.5401 39.8545 12.9951C40.2426 13.4501 40.8813 13.6777 41.7705 13.6777C42.6758 13.6777 43.3219 13.45 43.71 12.9951C44.098 12.5401 44.292 11.7847 44.292 10.7285C44.292 9.67242 44.098 8.91689 43.71 8.46191C43.3219 8.00709 42.6757 7.77934 41.7705 7.7793ZM56.2402 7.7793C55.3511 7.77932 54.7123 8.00694 54.3242 8.46191C53.9365 8.9169 53.7422 9.67251 53.7422 10.7285C53.7422 11.7845 53.9365 12.5401 54.3242 12.9951C54.7123 13.4501 55.3511 13.6777 56.2402 13.6777C57.1455 13.6777 57.7926 13.4501 58.1807 12.9951C58.5686 12.5401 58.7627 11.7845 58.7627 10.7285C58.7627 9.67249 58.5687 8.9169 58.1807 8.46191C57.7926 8.00692 57.1455 7.7793 56.2402 7.7793ZM5.82617 5.36719C6.24759 5.36719 6.45913 5.87683 6.16113 6.1748L1.14551 11.1895C0.907392 11.4276 0.505187 11.347 0.402344 11.0264C0.141436 10.2129 0 9.34543 0 8.44531C5.1081e-05 7.47306 0.164412 6.53918 0.466797 5.66992C0.530745 5.48612 0.706747 5.36724 0.901367 5.36719H5.82617ZM15.9902 5.36719C16.1849 5.36719 16.3609 5.48608 16.4248 5.66992C16.7272 6.53922 16.8915 7.473 16.8916 8.44531C16.8916 9.29051 16.7673 10.107 16.5361 10.877C16.4383 11.2027 16.0316 11.2884 15.791 11.0479L10.918 6.1748C10.62 5.87683 10.8315 5.36719 11.2529 5.36719H15.9902ZM24.8594 8.51074H27.7451C28.5049 8.51074 29.0953 8.32385 29.5156 7.9502C29.9522 7.56024 30.1709 6.97519 30.1709 6.19531C30.1709 4.61914 29.4185 3.83105 27.915 3.83105H24.8594V8.51074ZM8.44629 0C11.2 7.2691e-05 13.6457 1.31801 15.1875 3.35742C15.4101 3.65189 15.1884 4.05356 14.8193 4.05371H2.07324C1.70404 4.05371 1.4815 3.65194 1.7041 3.35742C3.24593 1.31783 5.69237 0 8.44629 0ZM90.7471 3.12402H86.5029V0.174805H90.7471V3.12402Z" fill="var(--fill-0, #00BBA7)"/>
</svg>
